<mxfile host="app.diagrams.net" modified="2023-11-30T15:28:55.811Z" agent="Mozilla/5.0 (Windows NT 10.0; Win64; x64; rv:120.0) Gecko/20100101 Firefox/120.0" version="22.1.5" etag="sluSSMrr7HPtYPhjJ0c1" type="github">
  <diagram name="Page-1" id="RT1SQDBlPR_bOJTWeXGg">
    <mxGraphModel>
      <root>
        <mxCell id="0" />
        <mxCell id="1" parent="0" />
      </root>
    </mxGraphModel>
  </diagram>
</mxfile>
